<svg width="81" height="80" viewBox="0 0 81 80" fill="none" xmlns="http://www.w3.org/2000/svg">
<path d="M40.5532 79.0158C60.8845 79.0158 77.3662 62.0374 77.3662 41.0935C77.3662 20.1496 60.8845 3.1712 40.5532 3.1712C20.222 3.1712 3.74023 20.1496 3.74023 41.0935C3.74023 62.0374 20.222 79.0158 40.5532 79.0158Z" stroke="#EAE4CC" stroke-width="1.0139" stroke-linecap="round" stroke-linejoin="round"/>
<path d="M27.2709 8.8638C17.8109 9.66617 12.2309 20.3807 12.088 28.5203C11.9125 38.5129 7.77598 30.9367 2.31842 39.8753C-3.02869 48.633 6.36968 66.624 18.1196 66.4847C30.7389 67.0431 32.9273 59.4107 32.9273 59.4107C32.9273 59.4107 29.2208 60.2427 25.05 57.2007C20.6484 53.9904 20.0866 43.549 25.057 28.6364C27.7202 20.5673 38.261 13.737 43.7323 16.0548C53.1164 20.0302 42.1487 22.5461 42.8313 29.3292C42.8194 31.2637 43.464 31.962 47.6105 35.8757C51.6213 39.6613 60.3729 44.8376 54.0507 56.3576C50.3919 63.0245 44.0319 62.4503 44.0319 62.4503C44.0319 62.4503 47.1421 67.8339 53.8885 70.8962C64.2886 74.2358 79.9719 69.7 80.1524 51.9663C80.3538 32.1783 69.9432 33.0476 61.7092 20.3168C54.5857 9.30298 55.6068 1.29683 47.1751 0.276397C34.9387 -1.2045 39.2302 11.573 27.2709 8.8638H27.2709Z" fill="#E15546"/>
<path d="M31.8389 50.974C31.8389 50.974 34.7934 47.9206 35.564 47.6861C36.3495 47.4471 38.1638 48.6886 38.1638 48.6886C38.1638 48.6886 39.736 47.491 40.1203 47.6478C40.5046 47.8047 42.214 48.8824 42.889 49.6462C43.3089 50.1213 43.6861 50.5207 43.9959 50.8008C43.9959 50.8008 42.9827 51.2147 42.2373 51.3103C40.4825 51.5354 39.7192 50.2028 38.3079 50.2718C37.6377 50.2749 36.66 50.2833 35.8373 50.8417C34.8895 51.485 33.4207 51.4504 32.818 51.3845C32.2154 51.3185 31.8389 50.974 31.8389 50.974V50.974Z" fill="#E15546" stroke="#E15546" stroke-width="0.205253"/>
<path d="M32.2106 51.4422C32.2106 51.4422 34.0183 52.8746 34.9044 53.6801C36.2723 54.9235 40.2227 54.4189 41.2919 53.4331C42.4534 52.3621 43.9959 50.8008 43.9959 50.8008C43.9959 50.8008 41.3642 51.6902 40.6223 51.2879C39.8805 50.8857 39.6444 50.9521 38.4446 51.3249C37.6789 51.5628 36.795 51.1741 36.4321 51.1835C36.0693 51.1928 35.7958 51.2908 35.1348 51.2877C34.4493 51.4812 33.4983 51.4798 33.0064 51.4193C32.4351 51.4162 31.8389 50.9741 31.8389 50.9741L32.2106 51.4422Z" fill="#E15546"/>
<path d="M24.6683 35.5827C26.1112 36.9329 28.0942 37.1606 29.0188 36.8146L30.093 36.4127C30.093 36.4127 28.7424 35.3078 28.0168 35.1987C26.7593 35.0323 23.7475 35.8826 21.7 35.71C20.4507 35.6047 19.3494 35.171 18.1348 34.5354" stroke="#E15546" stroke-width="0.26826"/>
<path d="M28.0428 36.9769C28.6074 36.9769 29.0652 36.6352 29.0652 36.2137C29.0652 35.7922 28.6074 35.4506 28.0428 35.4506C27.4782 35.4506 27.0205 35.7922 27.0205 36.2137C27.0205 36.6352 27.4782 36.9769 28.0428 36.9769Z" fill="#E15546"/>
<path d="M48.2612 62.9948C38.8492 68.0154 32.8938 63.7835 28.9443 61.4581" stroke="#E15546" stroke-width="0.26826"/>
</svg>
