<svg width="80" height="80" viewBox="0 0 80 80" fill="none" xmlns="http://www.w3.org/2000/svg">
<path d="M40.8181 79.2683C61.081 79.2683 77.5074 62.3987 77.5074 41.589C77.5074 20.7793 61.081 3.90973 40.8181 3.90973C20.5552 3.90973 4.12891 20.7793 4.12891 41.589C4.12891 62.3987 20.5552 79.2683 40.8181 79.2683Z" stroke="#EAE4CC" stroke-width="1.00894" stroke-linecap="round" stroke-linejoin="round"/>
<path d="M27.6624 37.0359C28.2252 37.0359 28.6813 36.6965 28.6813 36.2777C28.6813 35.8589 28.2252 35.5194 27.6624 35.5194C27.0997 35.5194 26.6436 35.8589 26.6436 36.2777C26.6436 36.6965 27.0997 37.0359 27.6624 37.0359Z" fill="#280B0B"/>
<path d="M26.9269 9.19097C17.4987 9.98819 11.9375 20.6341 11.795 28.7216C11.6201 38.6501 7.49754 31.1224 2.05836 40.0038C-3.27074 48.7054 6.09598 66.5811 17.8063 66.4427C30.3831 66.9975 32.5642 59.414 32.5642 59.414C32.5642 59.414 28.8702 60.2406 24.7134 57.2181C20.3266 54.0284 19.7667 43.6539 24.7204 28.8369C27.3746 20.8195 37.8799 14.0329 43.3328 16.3359C52.6853 20.2858 41.7546 22.7856 42.4349 29.5253C42.423 31.4474 43.0655 32.1411 47.198 36.0298C51.1952 39.7911 59.9174 44.9343 53.6165 56.3804C49.97 63.0046 43.6314 62.4341 43.6314 62.4341C43.6314 62.4341 46.7311 67.7832 53.4548 70.8258C63.8199 74.144 79.4504 69.6374 79.6303 52.0172C79.831 32.3561 69.4554 33.2198 61.2492 20.5706C54.1497 9.62733 55.1673 1.67252 46.764 0.658624C34.5688 -0.812784 38.8458 11.8828 26.9268 9.19097H26.9269Z" fill="#2B0000" stroke="black" stroke-width="0.266949"/>
<path d="M31.4785 51.0314C31.4785 51.0314 34.4231 47.9975 35.1911 47.7646C35.974 47.5271 37.7822 48.7607 37.7822 48.7607C37.7822 48.7607 39.349 47.5706 39.7321 47.7265C40.1151 47.8824 41.8187 48.9531 42.4915 49.7121C42.9099 50.1841 43.2858 50.581 43.5946 50.8593C43.5946 50.8593 42.5848 51.2705 41.842 51.3655C40.0931 51.5891 39.3323 50.2651 37.9258 50.3337C37.2578 50.337 36.2834 50.3452 35.4635 50.8999C34.5188 51.5391 33.055 51.5047 32.4544 51.4392C31.8538 51.3737 31.4785 51.0314 31.4785 51.0314V51.0314Z" fill="#2B0000" stroke="black" stroke-width="0.204249"/>
<path d="M31.849 51.4965C31.849 51.4965 33.6506 52.9198 34.5337 53.72C35.8971 54.9555 39.8341 54.4541 40.8997 53.4746C42.0573 52.4105 43.5946 50.8592 43.5946 50.8592C43.5946 50.8592 40.9718 51.7429 40.2324 51.3432C39.493 50.9436 39.2577 51.0096 38.062 51.3799C37.2989 51.6164 36.4179 51.2301 36.0563 51.2395C35.6947 51.2488 35.4221 51.3461 34.7633 51.343C34.0802 51.5353 33.1323 51.5339 32.6421 51.4738C32.0727 51.4705 31.4785 51.0314 31.4785 51.0314L31.849 51.4965Z" fill="#2B0000" stroke="black" stroke-width="0.204249" stroke-linejoin="round"/>
<path d="M24.3328 35.7387C25.7708 37.0802 27.7472 37.3064 28.6687 36.9627L29.7393 36.5633C29.7393 36.5633 28.3932 35.4656 27.67 35.3571C26.4168 35.1918 23.4151 36.0366 21.3745 35.8652C20.1294 35.7605 19.0318 35.3296 17.8213 34.6981" stroke="black" stroke-width="0.266949"/>
<path d="M47.8465 62.9751C38.4662 67.9635 32.5309 63.7588 28.5947 61.4483" stroke="black" stroke-width="0.266949"/>
</svg>
